<?xml version="1.0" encoding="UTF-8"?>
<!-- 2023-04-20 09:48:44 Generated by QCAD 3.27.9 SVG Exporter -->
<svg width="440mm" height="86mm" viewBox="-220000 -43000 440000 86000" version="1.1" xmlns="http://www.w3.org/2000/svg" style="stroke-linecap:round;stroke-linejoin:round;fill:none">
    <g transform="scale(1,-1)">
        <!-- Linie -->
        <path d="M-215000,9000 L-130000,9000 " style="stroke:#d15a5a;stroke-width:130;"/>
        <!-- Linie -->
        <path d="M-130000,9000 L-130000,-9000 " style="stroke:#d15a5a;stroke-width:130;"/>
        <!-- Linie -->
        <path d="M-215000,-9000 L-130000,-9000 " style="stroke:#d15a5a;stroke-width:130;"/>
        <!-- Linie -->
        <path d="M-215000,9000 L-215000,-9000 " style="stroke:#d15a5a;stroke-width:130;"/>
        <!-- Linie -->
        <path d="M-220000,43000 L220000,43000 " style="stroke:#d15a5a;stroke-width:130;"/>
        <!-- Linie -->
        <path d="M220000,43000 L220000,-43000 " style="stroke:#d15a5a;stroke-width:130;"/>
        <!-- Linie -->
        <path d="M-220000,-43000 L220000,-43000 " style="stroke:#d15a5a;stroke-width:130;"/>
        <!-- Linie -->
        <path d="M-220000,43000 L-220000,-43000 " style="stroke:#d15a5a;stroke-width:130;"/>
        <!-- Linie -->
        <path d="M-210000,33000 L210000,33000 " style="stroke:#d15a5a;stroke-width:130;"/>
        <!-- Linie -->
        <path d="M-210000,33000 L-210000,10000 " style="stroke:#d15a5a;stroke-width:130;"/>
        <!-- Linie -->
        <path d="M-216000,10000 L-210000,10000 " style="stroke:#d15a5a;stroke-width:130;"/>
        <!-- Linie -->
        <path d="M-216000,10000 L-216000,-10000 " style="stroke:#d15a5a;stroke-width:130;"/>
        <!-- Linie -->
        <path d="M-216000,-10000 L-210000,-10000 " style="stroke:#d15a5a;stroke-width:130;"/>
        <!-- Linie -->
        <path d="M-210000,-10000 L-210000,-33000 " style="stroke:#d15a5a;stroke-width:130;"/>
        <!-- Linie -->
        <path d="M-210000,-33000 L210000,-33000 " style="stroke:#d15a5a;stroke-width:130;"/>
        <!-- Linie -->
        <path d="M210000,33000 L210000,-33000 " style="stroke:#d15a5a;stroke-width:130;"/>
    </g>
</svg>
