<?xml version="1.0" encoding="UTF-8"?>
<!-- 2023-04-20 11:22:49 Generated by QCAD 3.27.9 SVG Exporter -->
<svg width="240mm" height="240mm" viewBox="-120000 -120000 240000 240000" version="1.1" xmlns="http://www.w3.org/2000/svg" style="stroke-linecap:round;stroke-linejoin:round;fill:none">
    <g transform="scale(1,-1)">
        <!-- Kreis -->
        <circle cx="-30000" cy="-46500" r="5250" style="stroke:#d15a5a;stroke-width:130;"/>
        <!-- Kreis -->
        <circle cx="-30000" cy="-46500" r="5250" style="stroke:#d15a5a;stroke-width:130;"/>
        <!-- Kreis -->
        <circle cx="-30000" cy="46500" r="5250" style="stroke:#d15a5a;stroke-width:130;"/>
        <!-- Kreis -->
        <circle cx="-30000" cy="46500" r="5250" style="stroke:#d15a5a;stroke-width:130;"/>
        <!-- Kreis -->
        <circle cx="30000" cy="-46500" r="5250" style="stroke:#d15a5a;stroke-width:130;"/>
        <!-- Kreis -->
        <circle cx="30000" cy="-46500" r="5250" style="stroke:#d15a5a;stroke-width:130;"/>
        <!-- Kreis -->
        <circle cx="30000" cy="46500" r="5250" style="stroke:#d15a5a;stroke-width:130;"/>
        <!-- Kreis -->
        <circle cx="30000" cy="46500" r="5250" style="stroke:#d15a5a;stroke-width:130;"/>
        <!-- Linie -->
        <path d="M-33000,33000 L33000,33000 " style="stroke:#d15a5a;stroke-width:130;"/>
        <!-- Linie -->
        <path d="M33000,33000 L33000,-33000 " style="stroke:#d15a5a;stroke-width:130;"/>
        <!-- Linie -->
        <path d="M-33000,-33000 L33000,-33000 " style="stroke:#d15a5a;stroke-width:130;"/>
        <!-- Linie -->
        <path d="M-33000,33000 L-33000,-33000 " style="stroke:#d15a5a;stroke-width:130;"/>
        <!-- Linie -->
        <path d="M-120000,120000 L120000,120000 " style="stroke:#d15a5a;stroke-width:130;"/>
        <!-- Linie -->
        <path d="M120000,120000 L120000,-120000 " style="stroke:#d15a5a;stroke-width:130;"/>
        <!-- Linie -->
        <path d="M-120000,-120000 L120000,-120000 " style="stroke:#d15a5a;stroke-width:130;"/>
        <!-- Linie -->
        <path d="M-120000,120000 L-120000,-120000 " style="stroke:#d15a5a;stroke-width:130;"/>
        <!-- Linie -->
        <path d="M-55000,-60000 L55000,-60000 " style="stroke:#d15a5a;stroke-width:130;"/>
        <!-- Kreisbogen -->
        <path d="M55000,-60000 A5000,5000 0 1,1 60000,-55000" style="stroke:#d15a5a;stroke-width:130;"/>
        <!-- Linie -->
        <path d="M60000,-55000 L60000,55000 " style="stroke:#d15a5a;stroke-width:130;"/>
        <!-- Kreisbogen -->
        <path d="M60000,55000 A5000,5000 0 1,1 55000,60000" style="stroke:#d15a5a;stroke-width:130;"/>
        <!-- Linie -->
        <path d="M55000,60000 L-55000,60000 " style="stroke:#d15a5a;stroke-width:130;"/>
        <!-- Kreisbogen -->
        <path d="M-55000,60000 A5000,5000 0 1,1 -60000,55000" style="stroke:#d15a5a;stroke-width:130;"/>
        <!-- Linie -->
        <path d="M-60000,55000 L-60000,-55000 " style="stroke:#d15a5a;stroke-width:130;"/>
        <!-- Kreisbogen -->
        <path d="M-60000,-55000 A5000,5000 0 1,1 -55000,-60000" style="stroke:#d15a5a;stroke-width:130;"/>
    </g>
</svg>
