<?xml version="1.0" encoding="UTF-8"?>
<!-- 2023-04-21 16:16:28 Generated by QCAD 3.27.9 SVG Exporter -->
<svg width="440mm" height="86.8mm" viewBox="-220000 -43400 440000 86800" version="1.1" xmlns="http://www.w3.org/2000/svg" style="stroke-linecap:round;stroke-linejoin:round;fill:none">
    <g transform="scale(1,-1)">
        <!-- Polylinie -->
        <path d="M-130000,9000 L-130000,-9000 L-215000,-9000 L-215000,9000 Z" style="stroke:#d15a5a;stroke-width:130;"/>
        <!-- Linie -->
        <path d="M-220000,43400 L220000,43400 " style="stroke:#000000;stroke-width:130;"/>
        <!-- Linie -->
        <path d="M220000,43400 L220000,-43400 " style="stroke:#000000;stroke-width:130;"/>
        <!-- Linie -->
        <path d="M-220000,-43400 L220000,-43400 " style="stroke:#000000;stroke-width:130;"/>
        <!-- Linie -->
        <path d="M-220000,43400 L-220000,-43400 " style="stroke:#000000;stroke-width:130;"/>
        <!-- Linie -->
        <path d="M-210000,33400 L210000,33400 " style="stroke:#000000;stroke-width:130;"/>
        <!-- Linie -->
        <path d="M-210000,33400 L-210000,10000 " style="stroke:#000000;stroke-width:130;"/>
        <!-- Linie -->
        <path d="M-216000,10000 L-210000,10000 " style="stroke:#000000;stroke-width:130;"/>
        <!-- Linie -->
        <path d="M-216000,10000 L-216000,-10000 " style="stroke:#000000;stroke-width:130;"/>
        <!-- Linie -->
        <path d="M-216000,-10000 L-210000,-10000 " style="stroke:#000000;stroke-width:130;"/>
        <!-- Linie -->
        <path d="M-210000,-10000 L-210000,-33400 " style="stroke:#000000;stroke-width:130;"/>
        <!-- Linie -->
        <path d="M-210000,-33400 L210000,-33400 " style="stroke:#000000;stroke-width:130;"/>
        <!-- Linie -->
        <path d="M210000,33400 L210000,-33400 " style="stroke:#000000;stroke-width:130;"/>
    </g>
</svg>
