<?xml version="1.0" encoding="UTF-8"?>
<!-- 2023-04-20 14:31:24 Generated by QCAD 3.27.9 SVG Exporter -->
<svg width="766mm" height="100mm" viewBox="-383000 -50000 766000 100000" version="1.1" xmlns="http://www.w3.org/2000/svg" style="stroke-linecap:round;stroke-linejoin:round;fill:none">
    <g transform="scale(1,-1)">
        <!-- Linie -->
        <path d="M330000,45000 L357000,45000 " style="stroke:#000000;stroke-width:130;"/>
        <!-- Linie -->
        <path d="M357000,45000 L357000,-45000 " style="stroke:#000000;stroke-width:130;"/>
        <!-- Linie -->
        <path d="M330000,-45000 L357000,-45000 " style="stroke:#000000;stroke-width:130;"/>
        <!-- Linie -->
        <path d="M330000,45000 L330000,-45000 " style="stroke:#000000;stroke-width:130;"/>
        <!-- Linie -->
        <path d="M-357000,45000 L-330000,45000 " style="stroke:#000000;stroke-width:130;"/>
        <!-- Linie -->
        <path d="M-330000,45000 L-330000,-45000 " style="stroke:#000000;stroke-width:130;"/>
        <!-- Linie -->
        <path d="M-357000,-45000 L-330000,-45000 " style="stroke:#000000;stroke-width:130;"/>
        <!-- Linie -->
        <path d="M-357000,45000 L-357000,-45000 " style="stroke:#000000;stroke-width:130;"/>
        <!-- Linie -->
        <path d="M-383000,50000 L383000,50000 " style="stroke:#000000;stroke-width:130;"/>
        <!-- Linie -->
        <path d="M383000,50000 L383000,-50000 " style="stroke:#000000;stroke-width:130;"/>
        <!-- Linie -->
        <path d="M-383000,-50000 L383000,-50000 " style="stroke:#000000;stroke-width:130;"/>
        <!-- Linie -->
        <path d="M-383000,50000 L-383000,-50000 " style="stroke:#000000;stroke-width:130;"/>
        <!-- Linie -->
        <path d="M358000,40000 L373000,40000 " style="stroke:#000000;stroke-width:130;"/>
        <!-- Linie -->
        <path d="M358000,46000 L358000,40000 " style="stroke:#000000;stroke-width:130;"/>
        <!-- Linie -->
        <path d="M329000,46000 L358000,46000 " style="stroke:#000000;stroke-width:130;"/>
        <!-- Linie -->
        <path d="M329000,46000 L329000,40000 " style="stroke:#000000;stroke-width:130;"/>
        <!-- Linie -->
        <path d="M-329000,40000 L329000,40000 " style="stroke:#000000;stroke-width:130;"/>
        <!-- Linie -->
        <path d="M-329000,46000 L-329000,40000 " style="stroke:#000000;stroke-width:130;"/>
        <!-- Linie -->
        <path d="M-358000,46000 L-329000,46000 " style="stroke:#000000;stroke-width:130;"/>
        <!-- Linie -->
        <path d="M-358000,46000 L-358000,40000 " style="stroke:#000000;stroke-width:130;"/>
        <!-- Linie -->
        <path d="M-373000,40000 L-358000,40000 " style="stroke:#000000;stroke-width:130;"/>
        <!-- Linie -->
        <path d="M-373000,40000 L-373000,-40000 " style="stroke:#000000;stroke-width:130;"/>
        <!-- Linie -->
        <path d="M-373000,-40000 L-358000,-40000 " style="stroke:#000000;stroke-width:130;"/>
        <!-- Linie -->
        <path d="M-358000,-40000 L-358000,-46000 " style="stroke:#000000;stroke-width:130;"/>
        <!-- Linie -->
        <path d="M-358000,-46000 L-329000,-46000 " style="stroke:#000000;stroke-width:130;"/>
        <!-- Linie -->
        <path d="M-329000,-40000 L-329000,-46000 " style="stroke:#000000;stroke-width:130;"/>
        <!-- Linie -->
        <path d="M-329000,-40000 L329000,-40000 " style="stroke:#000000;stroke-width:130;"/>
        <!-- Linie -->
        <path d="M329000,-40000 L329000,-46000 " style="stroke:#000000;stroke-width:130;"/>
        <!-- Linie -->
        <path d="M329000,-46000 L358000,-46000 " style="stroke:#000000;stroke-width:130;"/>
        <!-- Linie -->
        <path d="M358000,-40000 L358000,-46000 " style="stroke:#000000;stroke-width:130;"/>
        <!-- Linie -->
        <path d="M358000,-40000 L373000,-40000 " style="stroke:#000000;stroke-width:130;"/>
        <!-- Linie -->
        <path d="M373000,40000 L373000,-40000 " style="stroke:#000000;stroke-width:130;"/>
    </g>
</svg>
